  0
SECTION
  2
HEADER
  9
$ANGBASE
  50
0.0
  9
$ANGDIR
  70
1
  9
$MEASUREMENT
  70
1
  0
ENDSEC
  0
SECTION
  2
TABLES
  0
TABLE
  2
LTYPE
  70
4
  0
LTYPE
  5
40F
  2
CONTINUOUS
  70
0
  3
Solid line
  72
65
  73
0
  40
0.0
  0
LTYPE
  5
410
  2
DASHDOT
 70
0
  3
Dash Dot ____ _ ____ _
 72
65
 73
4
 40
2.0
 49
1.25
 49
-0.25
 49
0.25
 49
-0.25
  0
LTYPE
  5
411
  2
DASHED
 70
0
  3
Dashed __ __ __ __ __
 72
65
 73
2
 40
0.75
 49
0.5
 49
-0.25
  0
LTYPE
  5
43B
  2
DOTTED
 70
0
  3
Dotted .  .  .  .
 72
65
 73
2
 40
0.2
 49
0.0
 49
-0.2
  0
ENDTAB
  0
TABLE
  2
STYLE
  70
4
  0
STYLE
  2
KICAD
  70
0
  40
0
  41
1
  42
1
  50
0
  71
0
  3
isocp.shx
  0
STYLE
  2
KICADB
  70
0
  40
0
  41
1
  42
1
  50
0
  71
0
  3
isocp.shx
  0
STYLE
  2
KICADI
  70
0
  40
0
  41
1
  42
1
  50
15
  71
0
  3
isocp.shx
  0
STYLE
  2
KICADBI
  70
0
  40
0
  41
1
  42
1
  50
15
  71
0
  3
isocp.shx
  0
ENDTAB
  0
TABLE
  2
LAYER
  70
1
  0
LAYER
  2
BLACK
  70
0
  62
7
  6
CONTINUOUS
  0
ENDTAB
  0
ENDSEC
  0
SECTION
  2
ENTITIES
0
CIRCLE
8
BLACK
10
12.2699999999999996
20
9.5700000000000003
40
1.5
0
CIRCLE
8
BLACK
10
57.0499999999999972
20
9.5399999999999991
40
1.5
0
CIRCLE
8
BLACK
10
162.7099999999999795
20
9.7400000000000002
40
1.5
0
CIRCLE
8
BLACK
10
117.9299999999999926
20
9.7699999999999996
40
1.5
0
CIRCLE
8
BLACK
10
25.4899999999999984
20
-8.5
40
2.5
0
LINE
8
BLACK
6
CONTINUOUS
10
-6.9899999999999993
20
7.
11
7.
21
7.
0
LINE
8
BLACK
6
CONTINUOUS
10
7.
20
7.
11
7.
21
-6.9899999999999993
0
LINE
8
BLACK
6
CONTINUOUS
10
7.
20
-6.9899999999999993
11
-6.9899999999999993
21
-6.9899999999999993
0
LINE
8
BLACK
6
CONTINUOUS
10
-6.9899999999999993
20
-6.9899999999999993
11
-6.9899999999999993
21
7.
0
LINE
8
BLACK
6
CONTINUOUS
10
-6.9899999999999993
20
-27.
11
7.
21
-27.
0
LINE
8
BLACK
6
CONTINUOUS
10
7.
20
-27.
11
7.
21
-40.9899999999999949
0
LINE
8
BLACK
6
CONTINUOUS
10
7.
20
-40.9899999999999949
11
-6.9899999999999993
21
-40.9899999999999949
0
LINE
8
BLACK
6
CONTINUOUS
10
-6.9899999999999993
20
-40.9899999999999949
11
-6.9899999999999993
21
-27.
0
LINE
8
BLACK
6
CONTINUOUS
10
61.009999999999998
20
-44.
11
75.
21
-44.
0
LINE
8
BLACK
6
CONTINUOUS
10
75.
20
-44.
11
75.
21
-57.9899999999999949
0
LINE
8
BLACK
6
CONTINUOUS
10
75.
20
-57.9899999999999949
11
61.009999999999998
21
-57.9899999999999949
0
LINE
8
BLACK
6
CONTINUOUS
10
61.009999999999998
20
-57.9899999999999949
11
61.009999999999998
21
-44.
0
CIRCLE
8
BLACK
10
149.4899999999999807
20
-42.5
40
2.5
0
LINE
8
BLACK
6
CONTINUOUS
10
100.0099999999999909
20
-44.
11
114.
21
-44.
0
LINE
8
BLACK
6
CONTINUOUS
10
114.
20
-44.
11
114.
21
-57.9899999999999949
0
LINE
8
BLACK
6
CONTINUOUS
10
114.
20
-57.9899999999999949
11
100.0099999999999909
21
-57.9899999999999949
0
LINE
8
BLACK
6
CONTINUOUS
10
100.0099999999999909
20
-57.9899999999999949
11
100.0099999999999909
21
-44.
0
LINE
8
BLACK
6
CONTINUOUS
10
61.009999999999998
20
-10.
11
75.
21
-10.
0
LINE
8
BLACK
6
CONTINUOUS
10
75.
20
-10.
11
75.
21
-23.9899999999999984
0
LINE
8
BLACK
6
CONTINUOUS
10
75.
20
-23.9899999999999984
11
61.009999999999998
21
-23.9899999999999984
0
LINE
8
BLACK
6
CONTINUOUS
10
61.009999999999998
20
-23.9899999999999984
11
61.009999999999998
21
-10.
0
LINE
8
BLACK
6
CONTINUOUS
10
117.0099999999999909
20
-9.9900000000000002
11
131.
21
-9.9900000000000002
0
LINE
8
BLACK
6
CONTINUOUS
10
131.
20
-9.9900000000000002
11
131.
21
-23.9800000000000004
0
LINE
8
BLACK
6
CONTINUOUS
10
131.
20
-23.9800000000000004
11
117.0099999999999909
21
-23.9800000000000004
0
LINE
8
BLACK
6
CONTINUOUS
10
117.0099999999999909
20
-23.9800000000000004
11
117.0099999999999909
21
-9.9900000000000002
0
LINE
8
BLACK
6
CONTINUOUS
10
-6.9899999999999993
20
-44.
11
7.
21
-44.
0
LINE
8
BLACK
6
CONTINUOUS
10
7.
20
-44.
11
7.
21
-57.9899999999999949
0
LINE
8
BLACK
6
CONTINUOUS
10
7.
20
-57.9899999999999949
11
-6.9899999999999993
21
-57.9899999999999949
0
LINE
8
BLACK
6
CONTINUOUS
10
-6.9899999999999993
20
-57.9899999999999949
11
-6.9899999999999993
21
-44.
0
LINE
8
BLACK
6
CONTINUOUS
10
82.6099999999999994
20
-26.7749999999999986
11
92.5899999999999892
21
-26.7749999999999986
0
LINE
8
BLACK
6
CONTINUOUS
10
92.5899999999999892
20
-26.7749999999999986
11
92.5899999999999892
21
-43.7349999999999994
0
LINE
8
BLACK
6
CONTINUOUS
10
92.5899999999999892
20
-43.7349999999999994
11
82.6099999999999994
21
-43.7349999999999994
0
LINE
8
BLACK
6
CONTINUOUS
10
82.6099999999999994
20
-43.7349999999999994
11
82.6099999999999994
21
-26.7749999999999986
0
LINE
8
BLACK
6
CONTINUOUS
10
168.0099999999999909
20
-10.
11
182.
21
-10.
0
LINE
8
BLACK
6
CONTINUOUS
10
182.
20
-10.
11
182.
21
-23.9899999999999984
0
LINE
8
BLACK
6
CONTINUOUS
10
182.
20
-23.9899999999999984
11
168.0099999999999909
21
-23.9899999999999984
0
LINE
8
BLACK
6
CONTINUOUS
10
168.0099999999999909
20
-23.9899999999999984
11
168.0099999999999909
21
-10.
0
LINE
8
BLACK
6
CONTINUOUS
10
180.8599999999999852
20
-1.4299999999999999
11
184.4199999999999875
21
-1.4299999999999999
0
LINE
8
BLACK
6
CONTINUOUS
10
184.4199999999999875
20
-1.4299999999999999
11
184.4199999999999875
21
-10.4100000000000001
0
LINE
8
BLACK
6
CONTINUOUS
10
184.4199999999999875
20
-10.4100000000000001
11
180.8599999999999852
21
-10.4100000000000001
0
LINE
8
BLACK
6
CONTINUOUS
10
180.8599999999999852
20
-10.4100000000000001
11
180.8599999999999852
21
-1.4299999999999999
0
LINE
8
BLACK
6
CONTINUOUS
10
117.0099999999999909
20
7.0099999999999998
11
131.
21
7.0099999999999998
0
LINE
8
BLACK
6
CONTINUOUS
10
131.
20
7.0099999999999998
11
131.
21
-6.9799999999999995
0
LINE
8
BLACK
6
CONTINUOUS
10
131.
20
-6.9799999999999995
11
117.0099999999999909
21
-6.9799999999999995
0
LINE
8
BLACK
6
CONTINUOUS
10
117.0099999999999909
20
-6.9799999999999995
11
117.0099999999999909
21
7.0099999999999998
0
LINE
8
BLACK
6
CONTINUOUS
10
27.009999999999998
20
-43.9899999999999949
11
41.
21
-43.9899999999999949
0
LINE
8
BLACK
6
CONTINUOUS
10
41.
20
-43.9899999999999949
11
41.
21
-57.9799999999999969
0
LINE
8
BLACK
6
CONTINUOUS
10
41.
20
-57.9799999999999969
11
27.009999999999998
21
-57.9799999999999969
0
LINE
8
BLACK
6
CONTINUOUS
10
27.009999999999998
20
-57.9799999999999969
11
27.009999999999998
21
-43.9899999999999949
0
LINE
8
BLACK
6
CONTINUOUS
10
100.0099999999999909
20
7.
11
114.
21
7.
0
LINE
8
BLACK
6
CONTINUOUS
10
114.
20
7.
11
114.
21
-6.9899999999999993
0
LINE
8
BLACK
6
CONTINUOUS
10
114.
20
-6.9899999999999993
11
100.0099999999999909
21
-6.9899999999999993
0
LINE
8
BLACK
6
CONTINUOUS
10
100.0099999999999909
20
-6.9899999999999993
11
100.0099999999999909
21
7.
0
LINE
8
BLACK
6
CONTINUOUS
10
10.0099999999999998
20
-9.9900000000000002
11
24.
21
-9.9900000000000002
0
LINE
8
BLACK
6
CONTINUOUS
10
24.
20
-9.9900000000000002
11
24.
21
-23.9800000000000004
0
LINE
8
BLACK
6
CONTINUOUS
10
24.
20
-23.9800000000000004
11
10.0099999999999998
21
-23.9800000000000004
0
LINE
8
BLACK
6
CONTINUOUS
10
10.0099999999999998
20
-23.9800000000000004
11
10.0099999999999998
21
-9.9900000000000002
0
LINE
8
BLACK
6
CONTINUOUS
10
83.1599999999999966
20
-6.4699999999999998
11
92.1199999999999903
21
-6.4699999999999998
0
LINE
8
BLACK
6
CONTINUOUS
10
92.1199999999999903
20
-6.4699999999999998
11
92.1199999999999903
21
-10.0499999999999989
0
LINE
8
BLACK
6
CONTINUOUS
10
92.1199999999999903
20
-10.0499999999999989
11
83.1599999999999966
21
-10.0499999999999989
0
LINE
8
BLACK
6
CONTINUOUS
10
83.1599999999999966
20
-10.0499999999999989
11
83.1599999999999966
21
-6.4699999999999998
0
LINE
8
BLACK
6
CONTINUOUS
10
10.0099999999999998
20
-26.9899999999999984
11
24.
21
-26.9899999999999984
0
LINE
8
BLACK
6
CONTINUOUS
10
24.
20
-26.9899999999999984
11
24.
21
-40.9799999999999969
0
LINE
8
BLACK
6
CONTINUOUS
10
24.
20
-40.9799999999999969
11
10.0099999999999998
21
-40.9799999999999969
0
LINE
8
BLACK
6
CONTINUOUS
10
10.0099999999999998
20
-40.9799999999999969
11
10.0099999999999998
21
-26.9899999999999984
0
LINE
8
BLACK
6
CONTINUOUS
10
27.009999999999998
20
7.0099999999999998
11
41.
21
7.0099999999999998
0
LINE
8
BLACK
6
CONTINUOUS
10
41.
20
7.0099999999999998
11
41.
21
-6.9799999999999995
0
LINE
8
BLACK
6
CONTINUOUS
10
41.
20
-6.9799999999999995
11
27.009999999999998
21
-6.9799999999999995
0
LINE
8
BLACK
6
CONTINUOUS
10
27.009999999999998
20
-6.9799999999999995
11
27.009999999999998
21
7.0099999999999998
0
LINE
8
BLACK
6
CONTINUOUS
10
117.0099999999999909
20
-43.9899999999999949
11
131.
21
-43.9899999999999949
0
LINE
8
BLACK
6
CONTINUOUS
10
131.
20
-43.9899999999999949
11
131.
21
-57.9799999999999969
0
LINE
8
BLACK
6
CONTINUOUS
10
131.
20
-57.9799999999999969
11
117.0099999999999909
21
-57.9799999999999969
0
LINE
8
BLACK
6
CONTINUOUS
10
117.0099999999999909
20
-57.9799999999999969
11
117.0099999999999909
21
-43.9899999999999949
0
LINE
8
BLACK
6
CONTINUOUS
10
151.0099999999999909
20
-10.
11
165.
21
-10.
0
LINE
8
BLACK
6
CONTINUOUS
10
165.
20
-10.
11
165.
21
-23.9899999999999984
0
LINE
8
BLACK
6
CONTINUOUS
10
165.
20
-23.9899999999999984
11
151.0099999999999909
21
-23.9899999999999984
0
LINE
8
BLACK
6
CONTINUOUS
10
151.0099999999999909
20
-23.9899999999999984
11
151.0099999999999909
21
-10.
0
LINE
8
BLACK
6
CONTINUOUS
10
44.009999999999998
20
-44.
11
58.
21
-44.
0
LINE
8
BLACK
6
CONTINUOUS
10
58.
20
-44.
11
58.
21
-57.9899999999999949
0
LINE
8
BLACK
6
CONTINUOUS
10
58.
20
-57.9899999999999949
11
44.009999999999998
21
-57.9899999999999949
0
LINE
8
BLACK
6
CONTINUOUS
10
44.009999999999998
20
-57.9899999999999949
11
44.009999999999998
21
-44.
0
LINE
8
BLACK
6
CONTINUOUS
10
44.009999999999998
20
7.
11
58.
21
7.
0
LINE
8
BLACK
6
CONTINUOUS
10
58.
20
7.
11
58.
21
-6.9899999999999993
0
LINE
8
BLACK
6
CONTINUOUS
10
58.
20
-6.9899999999999993
11
44.009999999999998
21
-6.9899999999999993
0
LINE
8
BLACK
6
CONTINUOUS
10
44.009999999999998
20
-6.9899999999999993
11
44.009999999999998
21
7.
0
LINE
8
BLACK
6
CONTINUOUS
10
168.0099999999999909
20
7.
11
182.
21
7.
0
LINE
8
BLACK
6
CONTINUOUS
10
182.
20
7.
11
182.
21
-6.9899999999999993
0
LINE
8
BLACK
6
CONTINUOUS
10
182.
20
-6.9899999999999993
11
168.0099999999999909
21
-6.9899999999999993
0
LINE
8
BLACK
6
CONTINUOUS
10
168.0099999999999909
20
-6.9899999999999993
11
168.0099999999999909
21
7.
0
CIRCLE
8
BLACK
10
149.4899999999999807
20
-8.5
40
2.5
0
LINE
8
BLACK
6
CONTINUOUS
10
-6.9899999999999993
20
-10.
11
7.
21
-10.
0
LINE
8
BLACK
6
CONTINUOUS
10
7.
20
-10.
11
7.
21
-23.9899999999999984
0
LINE
8
BLACK
6
CONTINUOUS
10
7.
20
-23.9899999999999984
11
-6.9899999999999993
21
-23.9899999999999984
0
LINE
8
BLACK
6
CONTINUOUS
10
-6.9899999999999993
20
-23.9899999999999984
11
-6.9899999999999993
21
-10.
0
LINE
8
BLACK
6
CONTINUOUS
10
134.0099999999999909
20
-43.9899999999999949
11
148.
21
-43.9899999999999949
0
LINE
8
BLACK
6
CONTINUOUS
10
148.
20
-43.9899999999999949
11
148.
21
-57.9799999999999969
0
LINE
8
BLACK
6
CONTINUOUS
10
148.
20
-57.9799999999999969
11
134.0099999999999909
21
-57.9799999999999969
0
LINE
8
BLACK
6
CONTINUOUS
10
134.0099999999999909
20
-57.9799999999999969
11
134.0099999999999909
21
-43.9899999999999949
0
LINE
8
BLACK
6
CONTINUOUS
10
27.009999999999998
20
-9.9900000000000002
11
41.
21
-9.9900000000000002
0
LINE
8
BLACK
6
CONTINUOUS
10
41.
20
-9.9900000000000002
11
41.
21
-23.9800000000000004
0
LINE
8
BLACK
6
CONTINUOUS
10
41.
20
-23.9800000000000004
11
27.009999999999998
21
-23.9800000000000004
0
LINE
8
BLACK
6
CONTINUOUS
10
27.009999999999998
20
-23.9800000000000004
11
27.009999999999998
21
-9.9900000000000002
0
LINE
8
BLACK
6
CONTINUOUS
10
134.0099999999999909
20
-9.9900000000000002
11
148.
21
-9.9900000000000002
0
LINE
8
BLACK
6
CONTINUOUS
10
148.
20
-9.9900000000000002
11
148.
21
-23.9800000000000004
0
LINE
8
BLACK
6
CONTINUOUS
10
148.
20
-23.9800000000000004
11
134.0099999999999909
21
-23.9800000000000004
0
LINE
8
BLACK
6
CONTINUOUS
10
134.0099999999999909
20
-23.9800000000000004
11
134.0099999999999909
21
-9.9900000000000002
0
LINE
8
BLACK
6
CONTINUOUS
10
61.009999999999998
20
-27.
11
75.
21
-27.
0
LINE
8
BLACK
6
CONTINUOUS
10
75.
20
-27.
11
75.
21
-40.9899999999999949
0
LINE
8
BLACK
6
CONTINUOUS
10
75.
20
-40.9899999999999949
11
61.009999999999998
21
-40.9899999999999949
0
LINE
8
BLACK
6
CONTINUOUS
10
61.009999999999998
20
-40.9899999999999949
11
61.009999999999998
21
-27.
0
LINE
8
BLACK
6
CONTINUOUS
10
10.0099999999999998
20
7.0099999999999998
11
24.
21
7.0099999999999998
0
LINE
8
BLACK
6
CONTINUOUS
10
24.
20
7.0099999999999998
11
24.
21
-6.9799999999999995
0
LINE
8
BLACK
6
CONTINUOUS
10
24.
20
-6.9799999999999995
11
10.0099999999999998
21
-6.9799999999999995
0
LINE
8
BLACK
6
CONTINUOUS
10
10.0099999999999998
20
-6.9799999999999995
11
10.0099999999999998
21
7.0099999999999998
0
LINE
8
BLACK
6
CONTINUOUS
10
134.0099999999999909
20
-26.9899999999999984
11
148.
21
-26.9899999999999984
0
LINE
8
BLACK
6
CONTINUOUS
10
148.
20
-26.9899999999999984
11
148.
21
-40.9799999999999969
0
LINE
8
BLACK
6
CONTINUOUS
10
148.
20
-40.9799999999999969
11
134.0099999999999909
21
-40.9799999999999969
0
LINE
8
BLACK
6
CONTINUOUS
10
134.0099999999999909
20
-40.9799999999999969
11
134.0099999999999909
21
-26.9899999999999984
0
LINE
8
BLACK
6
CONTINUOUS
10
10.0099999999999998
20
-43.9899999999999949
11
24.
21
-43.9899999999999949
0
LINE
8
BLACK
6
CONTINUOUS
10
24.
20
-43.9899999999999949
11
24.
21
-57.9799999999999969
0
LINE
8
BLACK
6
CONTINUOUS
10
24.
20
-57.9799999999999969
11
10.0099999999999998
21
-57.9799999999999969
0
LINE
8
BLACK
6
CONTINUOUS
10
10.0099999999999998
20
-57.9799999999999969
11
10.0099999999999998
21
-43.9899999999999949
0
LINE
8
BLACK
6
CONTINUOUS
10
61.009999999999998
20
7.
11
75.
21
7.
0
LINE
8
BLACK
6
CONTINUOUS
10
75.
20
7.
11
75.
21
-6.9899999999999993
0
LINE
8
BLACK
6
CONTINUOUS
10
75.
20
-6.9899999999999993
11
61.009999999999998
21
-6.9899999999999993
0
LINE
8
BLACK
6
CONTINUOUS
10
61.009999999999998
20
-6.9899999999999993
11
61.009999999999998
21
7.
0
LINE
8
BLACK
6
CONTINUOUS
10
151.0099999999999909
20
7.
11
165.
21
7.
0
LINE
8
BLACK
6
CONTINUOUS
10
165.
20
7.
11
165.
21
-6.9899999999999993
0
LINE
8
BLACK
6
CONTINUOUS
10
165.
20
-6.9899999999999993
11
151.0099999999999909
21
-6.9899999999999993
0
LINE
8
BLACK
6
CONTINUOUS
10
151.0099999999999909
20
-6.9899999999999993
11
151.0099999999999909
21
7.
0
LINE
8
BLACK
6
CONTINUOUS
10
117.0099999999999909
20
-26.9899999999999984
11
131.
21
-26.9899999999999984
0
LINE
8
BLACK
6
CONTINUOUS
10
131.
20
-26.9899999999999984
11
131.
21
-40.9799999999999969
0
LINE
8
BLACK
6
CONTINUOUS
10
131.
20
-40.9799999999999969
11
117.0099999999999909
21
-40.9799999999999969
0
LINE
8
BLACK
6
CONTINUOUS
10
117.0099999999999909
20
-40.9799999999999969
11
117.0099999999999909
21
-26.9899999999999984
0
LINE
8
BLACK
6
CONTINUOUS
10
100.0099999999999909
20
-27.
11
114.
21
-27.
0
LINE
8
BLACK
6
CONTINUOUS
10
114.
20
-27.
11
114.
21
-40.9899999999999949
0
LINE
8
BLACK
6
CONTINUOUS
10
114.
20
-40.9899999999999949
11
100.0099999999999909
21
-40.9899999999999949
0
LINE
8
BLACK
6
CONTINUOUS
10
100.0099999999999909
20
-40.9899999999999949
11
100.0099999999999909
21
-27.
0
LINE
8
BLACK
6
CONTINUOUS
10
77.6700000000000017
20
16.4600000000000009
11
97.2299999999999898
21
16.4600000000000009
0
LINE
8
BLACK
6
CONTINUOUS
10
97.2299999999999898
20
16.4600000000000009
11
97.2299999999999898
21
-4.96
0
LINE
8
BLACK
6
CONTINUOUS
10
97.2299999999999898
20
-4.96
11
77.6700000000000017
21
-4.96
0
LINE
8
BLACK
6
CONTINUOUS
10
77.6700000000000017
20
-4.96
11
77.6700000000000017
21
16.4600000000000009
0
CIRCLE
8
BLACK
10
25.4899999999999984
20
-42.5
40
2.5
0
LINE
8
BLACK
6
CONTINUOUS
10
151.0099999999999909
20
-27.
11
165.
21
-27.
0
LINE
8
BLACK
6
CONTINUOUS
10
165.
20
-27.
11
165.
21
-40.9899999999999949
0
LINE
8
BLACK
6
CONTINUOUS
10
165.
20
-40.9899999999999949
11
151.0099999999999909
21
-40.9899999999999949
0
LINE
8
BLACK
6
CONTINUOUS
10
151.0099999999999909
20
-40.9899999999999949
11
151.0099999999999909
21
-27.
0
LINE
8
BLACK
6
CONTINUOUS
10
44.009999999999998
20
-27.
11
58.
21
-27.
0
LINE
8
BLACK
6
CONTINUOUS
10
58.
20
-27.
11
58.
21
-40.9899999999999949
0
LINE
8
BLACK
6
CONTINUOUS
10
58.
20
-40.9899999999999949
11
44.009999999999998
21
-40.9899999999999949
0
LINE
8
BLACK
6
CONTINUOUS
10
44.009999999999998
20
-40.9899999999999949
11
44.009999999999998
21
-27.
0
LINE
8
BLACK
6
CONTINUOUS
10
134.0099999999999909
20
7.0099999999999998
11
148.
21
7.0099999999999998
0
LINE
8
BLACK
6
CONTINUOUS
10
148.
20
7.0099999999999998
11
148.
21
-6.9799999999999995
0
LINE
8
BLACK
6
CONTINUOUS
10
148.
20
-6.9799999999999995
11
134.0099999999999909
21
-6.9799999999999995
0
LINE
8
BLACK
6
CONTINUOUS
10
134.0099999999999909
20
-6.9799999999999995
11
134.0099999999999909
21
7.0099999999999998
0
LINE
8
BLACK
6
CONTINUOUS
10
70.3199999999999932
20
14.0599999999999987
11
75.9799999999999898
21
14.0599999999999987
0
LINE
8
BLACK
6
CONTINUOUS
10
75.9799999999999898
20
14.0599999999999987
11
75.9799999999999898
21
10.4799999999999986
0
LINE
8
BLACK
6
CONTINUOUS
10
75.9799999999999898
20
10.4799999999999986
11
70.3199999999999932
21
10.4799999999999986
0
LINE
8
BLACK
6
CONTINUOUS
10
70.3199999999999932
20
10.4799999999999986
11
70.3199999999999932
21
14.0599999999999987
0
LINE
8
BLACK
6
CONTINUOUS
10
27.009999999999998
20
-26.9899999999999984
11
41.
21
-26.9899999999999984
0
LINE
8
BLACK
6
CONTINUOUS
10
41.
20
-26.9899999999999984
11
41.
21
-40.9799999999999969
0
LINE
8
BLACK
6
CONTINUOUS
10
41.
20
-40.9799999999999969
11
27.009999999999998
21
-40.9799999999999969
0
LINE
8
BLACK
6
CONTINUOUS
10
27.009999999999998
20
-40.9799999999999969
11
27.009999999999998
21
-26.9899999999999984
0
LINE
8
BLACK
6
CONTINUOUS
10
168.0099999999999909
20
-44.
11
182.
21
-44.
0
LINE
8
BLACK
6
CONTINUOUS
10
182.
20
-44.
11
182.
21
-57.9899999999999949
0
LINE
8
BLACK
6
CONTINUOUS
10
182.
20
-57.9899999999999949
11
168.0099999999999909
21
-57.9899999999999949
0
LINE
8
BLACK
6
CONTINUOUS
10
168.0099999999999909
20
-57.9899999999999949
11
168.0099999999999909
21
-44.
0
LINE
8
BLACK
6
CONTINUOUS
10
100.0099999999999909
20
-10.
11
114.
21
-10.
0
LINE
8
BLACK
6
CONTINUOUS
10
114.
20
-10.
11
114.
21
-23.9899999999999984
0
LINE
8
BLACK
6
CONTINUOUS
10
114.
20
-23.9899999999999984
11
100.0099999999999909
21
-23.9899999999999984
0
LINE
8
BLACK
6
CONTINUOUS
10
100.0099999999999909
20
-23.9899999999999984
11
100.0099999999999909
21
-10.
0
LINE
8
BLACK
6
CONTINUOUS
10
151.0099999999999909
20
-44.
11
165.
21
-44.
0
LINE
8
BLACK
6
CONTINUOUS
10
165.
20
-44.
11
165.
21
-57.9899999999999949
0
LINE
8
BLACK
6
CONTINUOUS
10
165.
20
-57.9899999999999949
11
151.0099999999999909
21
-57.9899999999999949
0
LINE
8
BLACK
6
CONTINUOUS
10
151.0099999999999909
20
-57.9899999999999949
11
151.0099999999999909
21
-44.
0
LINE
8
BLACK
6
CONTINUOUS
10
-9.5800000000000001
20
16.8099999999999987
11
184.5199999999999818
21
16.8099999999999987
0
LINE
8
BLACK
6
CONTINUOUS
10
184.5199999999999818
20
16.8099999999999987
11
184.5199999999999818
21
-62.8999999999999986
0
LINE
8
BLACK
6
CONTINUOUS
10
184.5199999999999818
20
-62.8999999999999986
11
-9.5800000000000001
21
-62.8999999999999986
0
LINE
8
BLACK
6
CONTINUOUS
10
-9.5800000000000001
20
-62.8999999999999986
11
-9.5800000000000001
21
16.8099999999999987
0
LINE
8
BLACK
6
CONTINUOUS
10
168.0099999999999909
20
-27.
11
182.
21
-27.
0
LINE
8
BLACK
6
CONTINUOUS
10
182.
20
-27.
11
182.
21
-40.9899999999999949
0
LINE
8
BLACK
6
CONTINUOUS
10
182.
20
-40.9899999999999949
11
168.0099999999999909
21
-40.9899999999999949
0
LINE
8
BLACK
6
CONTINUOUS
10
168.0099999999999909
20
-40.9899999999999949
11
168.0099999999999909
21
-27.
0
LINE
8
BLACK
6
CONTINUOUS
10
44.009999999999998
20
-10.
11
58.
21
-10.
0
LINE
8
BLACK
6
CONTINUOUS
10
58.
20
-10.
11
58.
21
-23.9899999999999984
0
LINE
8
BLACK
6
CONTINUOUS
10
58.
20
-23.9899999999999984
11
44.009999999999998
21
-23.9899999999999984
0
LINE
8
BLACK
6
CONTINUOUS
10
44.009999999999998
20
-23.9899999999999984
11
44.009999999999998
21
-10.
  0
ENDSEC
  0
EOF
